<?xml version="1.0" standalone="no"?>
<!DOCTYPE svg PUBLIC "-//W3C//DTD SVG 20010904//EN"
 "http://www.w3.org/TR/2001/REC-SVG-20010904/DTD/svg10.dtd">
<svg version="1.0" xmlns="http://www.w3.org/2000/svg"
 width="512.000000pt" height="512.000000pt" viewBox="0 0 512.000000 512.000000"
 preserveAspectRatio="xMidYMid meet">
<metadata>
Created by potrace 1.11, written by Peter Selinger 2001-2013
</metadata>
<g transform="translate(0.000000,512.000000) scale(0.100000,-0.100000)"
fill="#000000" stroke="none">
<path d="M1453 4605 c-138 -21 -230 -83 -257 -175 l-13 -45 -12 43 c-22 79
-107 145 -220 172 -68 16 -245 8 -321 -15 -175 -53 -270 -136 -271 -238 -2
-102 46 -148 206 -198 180 -55 215 -71 276 -126 47 -43 75 -99 83 -168 9 -83
44 -245 71 -330 30 -93 75 -195 87 -195 4 0 8 -5 8 -12 0 -22 63 -68 93 -68
62 0 139 118 190 290 26 89 37 132 43 165 1 11 5 29 7 40 3 11 8 43 11 70 14
98 17 110 42 152 44 76 111 115 290 172 146 46 186 67 214 113 97 159 -76 326
-367 354 -32 3 -62 7 -68 8 -5 2 -47 -3 -92 -9z"/>
<path d="M4935 4144 c-28 -14 -88 -54 -135 -88 -308 -223 -467 -290 -675 -281
-125 5 -215 23 -440 90 -114 34 -151 38 -170 19 -20 -20 -15 -36 42 -144 152
-285 358 -482 594 -570 48 -17 176 -49 202 -50 8 0 6 -46 -9 -240 -21 -286
-125 -489 -333 -649 -81 -63 -135 -85 -213 -87 -145 -5 -282 61 -683 324 -418
275 -601 372 -895 474 -110 38 -337 100 -410 112 -19 3 -48 8 -65 11 -83 14
-79 14 -270 34 -123 13 -439 11 -530 -4 -132 -22 -147 -25 -220 -50 -71 -24
-124 -47 -160 -68 -191 -116 -307 -266 -386 -500 -24 -70 -55 -207 -64 -282
-4 -27 -8 -61 -10 -74 -20 -119 -28 -717 -13 -921 11 -146 42 -338 68 -425 54
-175 107 -284 188 -381 98 -119 236 -207 406 -259 176 -54 175 -54 1321 -51
583 2 1076 6 1095 10 19 4 78 16 131 26 374 75 728 282 969 565 237 279 405
654 475 1060 21 116 22 128 30 202 4 35 9 75 11 90 26 208 21 593 -11 823 -13
92 -42 230 -55 265 -8 22 -3 28 53 69 72 51 88 69 139 153 42 69 71 149 93
255 22 103 25 134 31 333 7 239 -4 261 -101 209z"/>
</g>
</svg>
