<svg version="1.1" xmlns="http://www.w3.org/2000/svg" xmlns:xlink="http://www.w3.org/1999/xlink">
  <g id="mainlogo" stroke="none" stroke-width="1" fill="none" fill-rule="evenodd">
    <path d="M17.952,52.232 L26.52,74.264 C27.168,75.992 27.096,77.504 28.968,77.504 L29.472,77.504 C30.912,77.36 30.624,76.712 31.416,75.848 C32.064,60.656 32.208,45.536 33.432,30.272 C33.576,27.968 34.512,23.144 34.296,20.84 C34.008,18.464 30.84,18.68 30.048,20.552 C29.256,31.784 27.816,53.096 27.456,65.768 L19.464,45.896 C18.96,45.104 18.168,45.104 17.376,45.176 C16.152,45.32 15.144,46.112 15,47.264 C14.28,52.52 13.848,58.352 12.336,63.896 L10.968,55.976 C9.24,46.112 7.296,32.792 5.208,23.144 C4.848,21.344 0.6,21.632 0.6,23.72 C0.6,23.72 0.6,23.792 0.672,24.08 C1.752,26.96 2.472,30.128 3.048,33.08 C5.424,46.112 7.152,59 9.168,72.104 L10.104,76.856 C10.752,77.72 10.896,77.72 11.904,77.648 C13.776,77.432 13.992,76.208 14.424,74.552 C14.424,74.48 14.496,74.408 14.496,74.336 C15.36,67.64 17.088,62.096 17.952,52.232 Z M55.968,54.248 C55.968,55.544 56.328,67.208 56.328,68.504 C56.328,73.328 56.328,76.424 58.848,76.352 C61.224,76.28 59.424,59.576 60.432,26.528 C60.504,25.016 60.72,20.408 60.72,18.824 C60.216,18.104 59.208,17.384 58.344,17.384 C57.336,17.384 56.472,17.888 56.472,18.968 L56.472,19.328 C56.688,28.472 56.4,42.512 55.824,50.648 C53.16,50.504 50.424,50.504 47.688,50.504 C47.04,50.504 46.536,50.648 45.96,50 C45.888,49.064 45.888,44.456 45.888,43.448 C45.888,36.104 46.536,26.24 46.536,19.328 C45.888,18.464 45.312,17.816 44.304,17.816 C43.512,17.816 42.864,17.816 42.288,18.392 C42.216,23.936 41.712,52.952 41.712,58.568 C41.712,61.088 41.568,73.04 41.568,75.632 C41.712,76.568 45.672,77.792 45.672,74.552 L45.672,54.248 L55.968,54.248 Z M83.976,61.304 L73.32,61.304 L72.888,61.736 L71.664,69.872 C71.52,70.952 71.592,74.048 69.504,74.048 C68.568,74.048 67.92,72.176 67.92,71.456 C75.408,19.256 75.48,19.112 75.48,19.112 C75.84,17.744 76.344,15.728 78.144,15.728 C78.936,15.728 79.944,16.088 80.376,16.808 L80.952,18.32 C85.128,34.808 87.072,51.728 89.016,68.72 L89.448,73.4 C89.448,73.472 89.376,73.472 89.376,73.544 C88.872,74.912 88.584,75.488 87.216,75.488 L87,75.488 C86.568,75.488 85.848,75.488 85.776,74.984 L83.976,61.304 Z M78.576,23.432 L74.4,56.84 L83.4,57.056 L78.576,23.432 Z M110.904,74.12 C111.912,73.976 112.344,73.328 112.344,72.536 C112.344,71.096 111.048,70.808 109.896,70.808 C106.8,70.808 103.92,71.816 100.896,71.816 L100.392,71.816 C99.528,56.984 99.384,42.08 99.024,27.392 C98.952,24.584 99.24,22.856 98.592,20.048 C98.16,18.464 97.584,18.536 96.288,18.536 C96,18.536 95.136,18.608 94.92,18.68 C94.416,19.184 94.416,19.4 94.416,19.976 L94.416,20.48 C94.488,21.848 95.352,32.864 95.352,34.232 C95.352,39.128 96.216,76.28 96.288,76.28 L110.904,74.12 Z M117.528,74.696 C117.528,76.064 133.656,76.352 133.512,73.904 C133.296,70.592 129.768,72.248 124.944,72.248 C124.296,72.248 121.848,72.248 121.2,72.176 L121.416,53.384 L128.616,52.304 C131.496,51.872 132.792,48.56 129.408,48.56 L129.048,48.56 L121.272,49.712 L120.912,25.808 L129.552,25.808 C130.704,25.808 132.648,25.16 132.648,23.72 C132.648,23.576 132.648,23.504 132.576,23.36 C132.504,23 131.064,21.92 130.632,21.92 L119.256,21.92 C117.96,21.92 116.736,23.144 116.736,24.44 L117.528,74.696 Z M153.024,19.616 C143.664,19.616 139.2,29.624 137.472,37.112 C134.16,51.152 136.68,72.824 153.024,73.184 C155.328,73.184 157.992,72.32 156.552,69.8 C155.472,67.856 150.72,70.52 147.624,67.928 C141.288,62.672 140.712,56.12 140.712,46.904 C140.712,38.768 143.808,24.296 150.792,24.296 L151.224,24.296 C152.232,24.296 156.408,24.8 156.408,22.28 C156.408,20.624 154.536,19.616 153.024,19.616 Z M160.224,44.744 C160.224,35.6 160.872,18.824 173.616,18.824 C186.504,20.264 184.632,50.936 183.912,60.512 C183.408,65.768 180.744,74.912 173.544,74.912 C160.8,74.912 160.224,53.168 160.224,44.744 Z M164.4,38.12 C164.328,40.424 164.328,42.44 164.328,44.456 C164.328,65.552 168.216,71.312 173.328,71.312 C180.384,71.312 180.456,53.024 180.456,48.488 L180.456,48.2 C180.456,42.656 178.944,22.496 172.104,22.496 C166.704,22.496 164.4,34.52 164.4,38.12 Z M191.688,75.632 C191.688,77.72 195.72,77.432 195.864,74.264 L198.024,25.016 C198.024,24.872 198.096,23.936 198.096,23.72 C198.096,21.632 198.096,20.696 196.008,20.696 C194.496,20.696 194.136,20.768 193.632,22.208 L191.688,75.632 Z M205.296,74.696 C205.296,76.208 208.968,76.424 208.968,74.264 L209.472,30.056 C224.736,70.88 225.312,72.32 226.032,73.832 C226.608,75.056 228.84,75.92 229.344,74.408 C229.344,70.232 230.064,50.288 230.208,46.112 C230.496,38.624 231.576,31.136 231.792,23.648 C231.864,22.064 231.72,21.992 229.992,21.92 C228.912,21.92 228.12,21.92 228.12,22.712 C227.184,26.744 227.472,31.136 227.256,35.456 C226.824,42.512 226.248,60.224 226.176,63.392 L211.488,23.576 C209.976,19.4 206.016,21.128 206.16,24.008 L205.296,74.696 Z M239.856,74.696 C239.856,76.064 255.984,76.352 255.84,73.904 C255.624,70.592 252.096,72.248 247.272,72.248 C246.624,72.248 244.176,72.248 243.528,72.176 L243.744,53.384 L250.944,52.304 C253.824,51.872 255.12,48.56 251.736,48.56 L251.376,48.56 L243.6,49.712 L243.24,25.808 L251.88,25.808 C253.032,25.808 254.976,25.16 254.976,23.72 C254.976,23.576 254.976,23.504 254.904,23.36 C254.832,23 253.392,21.92 252.96,21.92 L241.584,21.92 C240.288,21.92 239.064,23.144 239.064,24.44 L239.856,74.696 Z M263.112,76.64 L263.112,70.592 C263.112,54.392 263.688,38.048 264.12,21.848 C264.264,18.536 265.488,18.536 268.368,18.536 L269.088,18.536 C275.712,18.536 279.96,22.856 279.96,29.192 L279.96,29.984 C279.96,35.24 278.592,41.36 273.84,44.6 C274.2,44.96 275.856,46.904 276.144,47.408 C279.384,51.656 278.592,61.952 278.952,66.92 C278.952,67.352 279.384,70.664 279.384,71.096 L279.384,71.672 C279.384,72.896 278.232,73.04 277.296,73.04 L277.224,73.04 C276.432,73.04 275.496,73.04 275.208,72.032 C275.136,69.656 274.488,58.64 274.344,56.192 C274.056,52.664 273.336,47.84 268.944,47.84 L267.792,47.84 C267.648,48.488 267.36,51.368 267.36,52.016 C267.288,52.664 266.928,68.648 266.856,74.768 C266.856,76.136 267.072,77.648 265.272,77.648 C264.48,77.648 263.616,77.36 263.112,76.64 Z M267.792,42.08 C267.792,42.656 268.296,42.728 268.728,42.728 C273.84,42.728 275.784,33.296 275.784,29.984 C275.784,26.6 274.2,22.28 270.096,22.28 C269.016,22.28 268.296,22.928 268.296,24.152 C268.368,30.416 267.792,35.672 267.792,42.08 Z" id="whalecoiner" fill="#FFFFFF"></path>
    <path d="M338.997662,63.5310272 C328.637662,63.3990272 320.882662,60.4000272 317.287662,58.6950272 C316.102662,49.3200272 318.251662,33.1040272 329.928662,30.9020272 C334.252662,30.0840272 376.838662,25.0640272 375.762662,51.7670272 C375.762662,51.7670272 382.429662,63.6010272 386.630662,46.0780272 C386.630662,46.0780272 379.918662,36.9320272 379.918662,31.4080272 C379.918662,31.4080272 393.982662,25.9590272 393.982662,42.0050272 L393.994662,42.0610272 C410.082662,42.0610272 405.276662,56.4530272 405.276662,56.4530272 C401.218662,56.4530272 392.394662,50.6250272 392.394662,50.6250272 C392.394662,50.6250272 388.346662,63.4100272 376.180662,68.1330272 C363.604662,73.0180272 326.488662,69.6100272 319.936662,65.5630272 C318.803662,64.8640272 318.547662,64.3910272 318.030662,62.5240272 C329.223662,67.4550272 351.403662,63.6890272 338.997662,63.5310272 Z M343.277472,59.9550272 C343.369472,60.6560272 345.931472,60.9000272 347.709472,60.6670272 C349.488472,60.4340272 349.810472,59.8120272 349.718472,59.1100272 C349.625472,58.4070272 349.365472,57.8620272 347.587472,58.0950272 C345.809472,58.3280272 343.184472,59.2520272 343.277472,59.9550272 Z" id="whale" fill="#FFFFFF"></path>
    <path d="M329.5,16 C326.462434,16 324,13.5375661 324,10.5 C324,7.46243388 326.462434,5 329.5,5 C332.537566,5 335,7.46243388 335,10.5 C335,13.5375661 332.537566,16 329.5,16 Z M348.5,23 C346.567003,23 345,21.4329966 345,19.5 C345,17.5670034 346.567003,16 348.5,16 C350.432997,16 352,17.5670034 352,19.5 C352,21.4329966 350.432997,23 348.5,23 Z M339.5,28 C338.119288,28 337,26.8807119 337,25.5 C337,24.1192881 338.119288,23 339.5,23 C340.880712,23 342,24.1192881 342,25.5 C342,26.8807119 340.880712,28 339.5,28 Z M339.5,20 C338.119288,20 337,18.8807119 337,17.5 C337,16.1192881 338.119288,15 339.5,15 C340.880712,15 342,16.1192881 342,17.5 C342,18.8807119 340.880712,20 339.5,20 Z M356.5,11 C353.462434,11 351,8.53756612 351,5.5 C351,2.46243388 353.462434,0 356.5,0 C359.537566,0 362,2.46243388 362,5.5 C362,8.53756612 359.537566,11 356.5,11 Z" id="coins" fill="#FFFFFF"></path>
  </g>

  <g stroke="null" fill-rule="evenodd" fill="none" id="textual-logo">
    <path stroke="null" fill="#b22929" id="whalecoiner-text" d="m17.352,36.504l8.568,22.032c0.648,1.728 0.576,3.24 2.448,3.24l0.504,0c1.44,-0.144 1.152,-0.792 1.944,-1.656c0.648,-15.192 0.792,-30.312 2.016,-45.576c0.144,-2.304 1.08,-7.128 0.864,-9.432c-0.288,-2.376 -3.456,-2.16 -4.248,-0.288c-0.792,11.232 -2.232,32.544 -2.592,45.216l-7.992,-19.872c-0.504,-0.792 -1.296,-0.792 -2.088,-0.72c-1.224,0.144 -2.232,0.936 -2.376,2.088c-0.72,5.256 -1.152,11.088 -2.664,16.632l-1.368,-7.92c-1.728,-9.864 -3.672,-23.184 -5.76,-32.832c-0.36,-1.8 -4.608,-1.512 -4.608,0.576c0,0 0,0.072 0.072,0.36c1.08,2.88 1.8,6.048 2.376,9c2.376,13.032 4.104,25.92 6.12,39.024l0.936,4.752c0.648,0.864 0.792,0.864 1.8,0.792c1.872,-0.216 2.088,-1.44 2.52,-3.096c0,-0.072 0.072,-0.144 0.072,-0.216c0.864,-6.696 2.592,-12.24 3.456,-22.104zm38.016,2.016c0,1.296 0.36,12.96 0.36,14.256c0,4.824 0,7.92 2.52,7.848c2.376,-0.072 0.576,-16.776 1.584,-49.824c0.072,-1.512 0.288,-6.12 0.288,-7.704c-0.504,-0.72 -1.512,-1.44 -2.376,-1.44c-1.008,0 -1.872,0.504 -1.872,1.584l0,0.36c0.216,9.144 -0.072,23.184 -0.648,31.32c-2.664,-0.144 -5.4,-0.144 -8.136,-0.144c-0.648,0 -1.152,0.144 -1.728,-0.504c-0.072,-0.936 -0.072,-5.544 -0.072,-6.552c0,-7.344 0.648,-17.208 0.648,-24.12c-0.648,-0.864 -1.224,-1.512 -2.232,-1.512c-0.792,0 -1.44,0 -2.016,0.576c-0.072,5.544 -0.576,34.56 -0.576,40.176c0,2.52 -0.144,14.472 -0.144,17.064c0.144,0.936 4.104,2.16 4.104,-1.08l0,-20.304l10.296,0zm28.008,7.056l-10.656,0l-0.432,0.432l-1.224,8.136c-0.144,1.08 -0.072,4.176 -2.16,4.176c-0.936,0 -1.584,-1.872 -1.584,-2.592c7.488,-52.2 7.56,-52.344 7.56,-52.344c0.36,-1.368 0.864,-3.384 2.664,-3.384c0.792,0 1.8,0.36 2.232,1.08l0.576,1.512c4.176,16.488 6.12,33.408 8.064,50.4l0.432,4.68c0,0.072 -0.072,0.072 -0.072,0.144c-0.504,1.368 -0.792,1.944 -2.16,1.944l-0.216,0c-0.432,0 -1.152,0 -1.224,-0.504l-1.8,-13.68zm-5.4,-37.872l-4.176,33.408l9,0.216l-4.824,-33.624zm32.328,50.688c1.008,-0.144 1.44,-0.792 1.44,-1.584c0,-1.44 -1.296,-1.728 -2.448,-1.728c-3.096,0 -5.976,1.008 -9,1.008l-0.504,0c-0.864,-14.832 -1.008,-29.736 -1.368,-44.424c-0.072,-2.808 0.216,-4.536 -0.432,-7.344c-0.432,-1.584 -1.008,-1.512 -2.304,-1.512c-0.288,0 -1.152,0.072 -1.368,0.144c-0.504,0.504 -0.504,0.72 -0.504,1.296l0,0.504c0.072,1.368 0.936,12.384 0.936,13.752c0,4.896 0.864,42.048 0.936,42.048l14.616,-2.16zm6.624,0.576c0,1.368 16.128,1.656 15.984,-0.792c-0.216,-3.312 -3.744,-1.656 -8.568,-1.656c-0.648,0 -3.096,0 -3.744,-0.072l0.216,-18.792l7.2,-1.08c2.88,-0.432 4.176,-3.744 0.792,-3.744l-0.36,0l-7.776,1.152l-0.36,-23.904l8.64,0c1.152,0 3.096,-0.648 3.096,-2.088c0,-0.144 0,-0.216 -0.072,-0.36c-0.072,-0.36 -1.512,-1.44 -1.944,-1.44l-11.376,0c-1.296,0 -2.52,1.224 -2.52,2.52l0.792,50.256zm35.496,-55.08c-9.36,0 -13.824,10.008 -15.552,17.496c-3.312,14.04 -0.792,35.712 15.552,36.072c2.304,0 4.968,-0.864 3.528,-3.384c-1.08,-1.944 -5.832,0.72 -8.928,-1.872c-6.336,-5.256 -6.912,-11.808 -6.912,-21.024c0,-8.136 3.096,-22.608 10.08,-22.608l0.432,0c1.008,0 5.184,0.504 5.184,-2.016c0,-1.656 -1.872,-2.664 -3.384,-2.664zm7.2,25.128c0,-9.144 0.648,-25.92 13.392,-25.92c12.888,1.44 11.016,32.112 10.296,41.688c-0.504,5.256 -3.168,14.4 -10.368,14.4c-12.744,0 -13.32,-21.744 -13.32,-30.168zm4.176,-6.624c-0.072,2.304 -0.072,4.32 -0.072,6.336c0,21.096 3.888,26.856 9,26.856c7.056,0 7.128,-18.288 7.128,-22.824l0,-0.288c0,-5.544 -1.512,-25.704 -8.352,-25.704c-5.4,0 -7.704,12.024 -7.704,15.624zm27.288,37.512c0,2.088 4.032,1.8 4.176,-1.368l2.16,-49.248c0,-0.144 0.072,-1.08 0.072,-1.296c0,-2.088 0,-3.024 -2.088,-3.024c-1.512,0 -1.872,0.072 -2.376,1.512l-1.944,53.424zm13.608,-0.936c0,1.512 3.672,1.728 3.672,-0.432l0.504,-44.208c15.264,40.824 15.84,42.264 16.56,43.776c0.576,1.224 2.808,2.088 3.312,0.576c0,-4.176 0.72,-24.12 0.864,-28.296c0.288,-7.488 1.368,-14.976 1.584,-22.464c0.072,-1.584 -0.072,-1.656 -1.8,-1.728c-1.08,0 -1.872,0 -1.872,0.792c-0.936,4.032 -0.648,8.424 -0.864,12.744c-0.432,7.056 -1.008,24.768 -1.08,27.936l-14.688,-39.816c-1.512,-4.176 -5.472,-2.448 -5.328,0.432l-0.864,50.688zm34.56,0c0,1.368 16.128,1.656 15.984,-0.792c-0.216,-3.312 -3.744,-1.656 -8.568,-1.656c-0.648,0 -3.096,0 -3.744,-0.072l0.216,-18.792l7.2,-1.08c2.88,-0.432 4.176,-3.744 0.792,-3.744l-0.36,0l-7.776,1.152l-0.36,-23.904l8.64,0c1.152,0 3.096,-0.648 3.096,-2.088c0,-0.144 0,-0.216 -0.072,-0.36c-0.072,-0.36 -1.512,-1.44 -1.944,-1.44l-11.376,0c-1.296,0 -2.52,1.224 -2.52,2.52l0.792,50.256zm23.256,1.944l0,-6.048c0,-16.2 0.576,-32.544 1.008,-48.744c0.144,-3.312 1.368,-3.312 4.248,-3.312l0.72,0c6.624,0 10.872,4.32 10.872,10.656l0,0.792c0,5.256 -1.368,11.376 -6.12,14.616c0.36,0.36 2.016,2.304 2.304,2.808c3.24,4.248 2.448,14.544 2.808,19.512c0,0.432 0.432,3.744 0.432,4.176l0,0.576c0,1.224 -1.152,1.368 -2.088,1.368l-0.072,0c-0.792,0 -1.728,0 -2.016,-1.008c-0.072,-2.376 -0.72,-13.392 -0.864,-15.84c-0.288,-3.528 -1.008,-8.352 -5.4,-8.352l-1.152,0c-0.144,0.648 -0.432,3.528 -0.432,4.176c-0.072,0.648 -0.432,16.632 -0.504,22.752c0,1.368 0.216,2.88 -1.584,2.88c-0.792,0 -1.656,-0.288 -2.16,-1.008zm4.68,-34.56c0,0.576 0.504,0.648 0.936,0.648c5.112,0 7.056,-9.432 7.056,-12.744c0,-3.384 -1.584,-7.704 -5.688,-7.704c-1.08,0 -1.8,0.648 -1.8,1.872c0.072,6.264 -0.504,11.52 -0.504,17.928z"/>
  </g>
</svg>